<svg width="25" height="18" viewBox="0 0 25 18" fill="none" xmlns="http://www.w3.org/2000/svg">
<g id="India" clip-path="url(#clip0_1_11930)">
<path id="Vector" d="M0 0H25V6H0V0Z" fill="#FF9933"/>
<path id="Vector_2" d="M0 6H25V12H0V6Z" fill="white"/>
<path id="Vector_3" d="M0 12H25V18H0V12Z" fill="#128807"/>
<g id="Group">
<path id="Vector_4" d="M12.5 11.3999C13.8807 11.3999 15 10.3253 15 8.99985C15 7.67437 13.8807 6.59985 12.5 6.59985C11.1193 6.59985 10 7.67437 10 8.99985C10 10.3253 11.1193 11.3999 12.5 11.3999Z" fill="#000088"/>
<path id="Vector_5" d="M12.5 11.0999C13.7081 11.0999 14.6875 10.1597 14.6875 8.9999C14.6875 7.8401 13.7081 6.8999 12.5 6.8999C11.2919 6.8999 10.3125 7.8401 10.3125 8.9999C10.3125 10.1597 11.2919 11.0999 12.5 11.0999Z" fill="white"/>
<path id="Vector_6" d="M12.5 9.41983C12.7416 9.41983 12.9375 9.23179 12.9375 8.99983C12.9375 8.76787 12.7416 8.57983 12.5 8.57983C12.2584 8.57983 12.0625 8.76787 12.0625 8.99983C12.0625 9.23179 12.2584 9.41983 12.5 9.41983Z" fill="#000088"/>
<g id="d">
<g id="c">
<g id="b">
<g id="a">
<path id="Vector_7" d="M14.6546 9.37816C14.7145 9.38573 14.7694 9.34526 14.7773 9.28776C14.7852 9.23027 14.743 9.17752 14.6831 9.16996C14.6233 9.16239 14.5683 9.20286 14.5604 9.26035C14.5525 9.31785 14.5947 9.37059 14.6546 9.37816Z" fill="#000088"/>
<path id="Vector_8" d="M12.5 11.1L12.575 9.83999L12.5 9.23999L12.425 9.83999L12.5 11.1Z" fill="#000088"/>
</g>
<g id="a_2">
<path id="Vector_9" d="M14.4782 9.9014C14.5336 9.92321 14.5976 9.89714 14.6211 9.84318C14.6447 9.78921 14.6188 9.72779 14.5634 9.70599C14.508 9.68418 14.4441 9.71025 14.4205 9.76421C14.397 9.81817 14.4228 9.87959 14.4782 9.9014Z" fill="#000088"/>
<path id="Vector_10" d="M11.9318 11.029L12.3446 9.8291L12.4372 9.23114L12.2037 9.7931L11.9318 11.029Z" fill="#000088"/>
</g>
</g>
<g id="b_2">
<g id="a_3">
<path id="Vector_11" d="M14.168 10.3624C14.2155 10.3973 14.2842 10.3879 14.3214 10.3415C14.3586 10.2951 14.3503 10.2292 14.3028 10.1943C14.2553 10.1594 14.1866 10.1687 14.1494 10.2152C14.1122 10.2616 14.1206 10.3275 14.168 10.3624Z" fill="#000088"/>
<path id="Vector_12" d="M11.4048 10.8195L12.1264 9.76242L12.3761 9.20709L11.9992 9.692L11.4048 10.8195Z" fill="#000088"/>
</g>
<g id="a_4">
<path id="Vector_13" d="M13.744 10.7308C13.7804 10.7765 13.849 10.7846 13.8973 10.7489C13.9456 10.7132 13.9553 10.6473 13.9189 10.6017C13.8825 10.556 13.8139 10.548 13.7656 10.5836C13.7173 10.6193 13.7076 10.6852 13.744 10.7308Z" fill="#000088"/>
<path id="Vector_14" d="M10.9521 10.4858L11.9336 9.64387L12.3239 9.16899L11.8292 9.54369L10.9521 10.4858Z" fill="#000088"/>
</g>
</g>
</g>
<g id="c_2">
<g id="b_3">
<g id="a_5">
<path id="Vector_15" d="M13.2368 10.9795C13.2604 11.0336 13.3244 11.0597 13.3798 11.038C13.4351 11.0162 13.4608 10.9548 13.4372 10.9008C13.4137 10.8468 13.3497 10.8206 13.2943 10.8423C13.239 10.8641 13.2133 10.9255 13.2368 10.9795Z" fill="#000088"/>
<path id="Vector_16" d="M10.6065 10.0487L11.7804 9.48409L12.2827 9.12127L11.7037 9.35678L10.6065 10.0487Z" fill="#000088"/>
</g>
<g id="a_6">
<path id="Vector_17" d="M12.6781 11.0948C12.6865 11.1527 12.7414 11.194 12.8009 11.1868C12.8603 11.1797 12.9017 11.127 12.8933 11.069C12.8849 11.0111 12.83 10.9699 12.7706 10.977C12.7112 10.9841 12.6698 11.0368 12.6781 11.0948Z" fill="#000088"/>
<path id="Vector_18" d="M10.3877 9.54143L11.6747 9.28946L12.2579 9.06393L11.6345 9.14646L10.3877 9.54143Z" fill="#000088"/>
</g>
</g>
<g id="b_4">
<g id="a_7">
<path id="Vector_19" d="M12.1051 11.0677C12.0977 11.1248 12.1407 11.1775 12.2011 11.1855C12.2614 11.1935 12.3164 11.1538 12.3238 11.0967C12.3312 11.0397 12.2882 10.9869 12.2278 10.9789C12.1674 10.9709 12.1125 11.0106 12.1051 11.0677Z" fill="#000088"/>
<path id="Vector_20" d="M10.3133 8.99291L11.6255 9.06751L12.2494 9.00755L11.6242 8.93815L10.3133 8.99291Z" fill="#000088"/>
</g>
<g id="a_8">
<path id="Vector_21" d="M11.5616 10.8997C11.5387 10.9531 11.5655 11.0145 11.6215 11.0369C11.6776 11.0592 11.7415 11.0341 11.7644 10.9807C11.7873 10.9273 11.7605 10.8659 11.7045 10.8435C11.6484 10.8211 11.5845 10.8463 11.5616 10.8997Z" fill="#000088"/>
<path id="Vector_22" d="M10.3868 8.45562L11.636 8.85159L12.259 8.93878L11.6741 8.71426L10.3868 8.45562Z" fill="#000088"/>
</g>
</g>
</g>
</g>
<g id="d_2">
<g id="c_3">
<g id="b_5">
<g id="a_9">
<path id="Vector_23" d="M11.0824 10.603C11.0452 10.6494 11.0536 10.7153 11.101 10.7502C11.1485 10.7851 11.2172 10.7757 11.2544 10.7293C11.2916 10.6829 11.2833 10.617 11.2358 10.5821C11.1883 10.5472 11.1197 10.5566 11.0824 10.603Z" fill="#000088"/>
<path id="Vector_24" d="M10.6065 7.95121L11.7036 8.6431L12.2827 8.8786L11.7803 8.51578L10.6065 7.95121Z" fill="#000088"/>
</g>
<g id="a_10">
<path id="Vector_25" d="M10.6988 10.1957C10.6505 10.2314 10.6407 10.2974 10.677 10.3429C10.7134 10.3885 10.782 10.3965 10.8304 10.3608C10.8788 10.3251 10.8885 10.2592 10.8522 10.2136C10.8159 10.168 10.7472 10.16 10.6988 10.1957Z" fill="#000088"/>
<path id="Vector_26" d="M10.9542 7.51592L11.8268 8.45745L12.3222 8.82922L11.9349 8.3537L10.9542 7.51592Z" fill="#000088"/>
</g>
</g>
<g id="b_6">
<g id="a_11">
<path id="Vector_27" d="M10.4377 9.70724C10.3815 9.72975 10.3545 9.79117 10.3773 9.84443C10.4 9.89769 10.464 9.92263 10.5202 9.90012C10.5763 9.87762 10.6034 9.8162 10.5806 9.76293C10.5578 9.70967 10.4938 9.68474 10.4377 9.70724Z" fill="#000088"/>
<path id="Vector_28" d="M11.407 7.18177L11.996 8.30876L12.3738 8.79145L12.1278 8.23563L11.407 7.18177Z" fill="#000088"/>
</g>
<g id="a_12">
<path id="Vector_29" d="M10.3175 9.17047C10.2573 9.17835 10.2145 9.23109 10.2221 9.28827C10.2296 9.34546 10.2846 9.38543 10.3448 9.37755C10.405 9.36967 10.4477 9.31692 10.4402 9.25974C10.4327 9.20256 10.3777 9.16259 10.3175 9.17047Z" fill="#000088"/>
<path id="Vector_30" d="M11.9354 6.97187L12.1992 8.20741L12.4339 8.76761L12.347 8.16926L11.9354 6.97187Z" fill="#000088"/>
</g>
</g>
</g>
<g id="c_4">
<g id="b_7">
<g id="a_13">
<path id="Vector_31" d="M10.3464 8.62105C10.287 8.61392 10.232 8.6551 10.2237 8.71303C10.2153 8.77097 10.2566 8.82371 10.316 8.83084C10.3754 8.83797 10.4304 8.79679 10.4388 8.73885C10.4471 8.68092 10.4058 8.62818 10.3464 8.62105Z" fill="#000088"/>
<path id="Vector_32" d="M12.5082 6.90058L12.4304 8.16037L12.492 8.75939L12.5641 8.15917L12.5082 6.90058Z" fill="#000088"/>
</g>
<g id="a_14">
<path id="Vector_33" d="M10.5216 8.09837C10.4662 8.07656 10.4022 8.10261 10.3787 8.15657C10.3551 8.21053 10.3809 8.27195 10.4363 8.29376C10.4917 8.31557 10.5557 8.28951 10.5792 8.23556C10.6028 8.1816 10.577 8.12018 10.5216 8.09837Z" fill="#000088"/>
<path id="Vector_34" d="M13.0681 6.97074L12.6552 8.17064L12.5626 8.76861L12.7961 8.20666L13.0681 6.97074Z" fill="#000088"/>
</g>
</g>
<g id="b_8">
<g id="a_15">
<path id="Vector_35" d="M10.832 7.63762C10.7845 7.60274 10.7159 7.61208 10.6787 7.6585C10.6414 7.70492 10.6498 7.77084 10.6972 7.80573C10.7447 7.84061 10.8134 7.83127 10.8506 7.78485C10.8878 7.73843 10.8795 7.67251 10.832 7.63762Z" fill="#000088"/>
<path id="Vector_36" d="M13.5951 7.18053L12.8734 8.23758L12.6237 8.79292L13.0006 8.308L13.5951 7.18053Z" fill="#000088"/>
</g>
<g id="a_16">
<path id="Vector_37" d="M11.2558 7.26932C11.2195 7.22372 11.1508 7.2157 11.1025 7.25141C11.0541 7.28712 11.0444 7.35303 11.0807 7.39863C11.117 7.44423 11.1857 7.45225 11.2341 7.41655C11.2824 7.38084 11.2922 7.31493 11.2558 7.26932Z" fill="#000088"/>
<path id="Vector_38" d="M14.0478 7.51405L13.0663 8.35626L12.6757 8.83111L13.1704 8.45625L14.0478 7.51405Z" fill="#000088"/>
</g>
</g>
</g>
</g>
<g id="d_3">
<g id="c_5">
<g id="b_9">
<g id="a_17">
<path id="Vector_39" d="M11.7631 7.02047C11.7396 6.96644 11.6756 6.94027 11.6202 6.96201C11.5649 6.98375 11.5392 7.04517 11.5628 7.0992C11.5863 7.15322 11.6503 7.1794 11.7057 7.15766C11.761 7.13592 11.7867 7.07449 11.7631 7.02047Z" fill="#000088"/>
<path id="Vector_40" d="M14.3937 7.95133L13.2199 8.51591L12.7175 8.87872L13.2966 8.64322L14.3937 7.95133Z" fill="#000088"/>
</g>
<g id="a_18">
<path id="Vector_41" d="M12.3219 6.90496C12.3135 6.84701 12.2586 6.8058 12.1992 6.81291C12.1397 6.82002 12.0983 6.87276 12.1067 6.93071C12.1151 6.98867 12.17 7.02988 12.2294 7.02277C12.2888 7.01566 12.3302 6.96291 12.3219 6.90496Z" fill="#000088"/>
<path id="Vector_42" d="M14.6123 8.45833L13.3253 8.71029L12.7421 8.93583L13.3655 8.85329L14.6123 8.45833Z" fill="#000088"/>
</g>
</g>
<g id="b_10">
<g id="a_19">
<path id="Vector_43" d="M12.895 6.93264C12.9023 6.87565 12.8593 6.82291 12.7988 6.81483C12.7384 6.80676 12.6834 6.84641 12.6761 6.9034C12.6688 6.96039 12.7118 7.01314 12.7723 7.02121C12.8327 7.02928 12.8877 6.98963 12.895 6.93264Z" fill="#000088"/>
<path id="Vector_44" d="M14.6867 9.00847L13.3745 8.93353L12.7507 8.99193L13.376 9.061L14.6867 9.00847Z" fill="#000088"/>
</g>
<g id="a_20">
<path id="Vector_45" d="M13.4388 7.10074C13.4616 7.04743 13.4347 6.98601 13.3786 6.96355C13.3225 6.9411 13.2585 6.96612 13.2357 7.01943C13.2128 7.07275 13.2398 7.13417 13.2959 7.15662C13.352 7.17908 13.416 7.15406 13.4388 7.10074Z" fill="#000088"/>
<path id="Vector_46" d="M14.6135 9.545L13.364 9.1489L12.7411 9.0611L13.3262 9.28549L14.6135 9.545Z" fill="#000088"/>
</g>
</g>
</g>
<g id="c_6">
<g id="b_11">
<g id="a_21">
<path id="Vector_47" d="M13.919 7.3982C13.9556 7.3524 13.9461 7.28649 13.898 7.25098C13.8499 7.21547 13.7812 7.22381 13.7446 7.26961C13.7081 7.31541 13.7175 7.38132 13.7656 7.41683C13.8138 7.45234 13.8825 7.444 13.919 7.3982Z" fill="#000088"/>
<path id="Vector_48" d="M14.3951 10.0507L13.2949 9.35811L12.7163 9.11943L13.2207 9.48156L14.3951 10.0507Z" fill="#000088"/>
</g>
<g id="a_22">
<path id="Vector_49" d="M14.3026 7.80524C14.3503 7.77015 14.359 7.70423 14.322 7.65802C14.285 7.6118 14.2163 7.60278 14.1686 7.63788C14.1209 7.67297 14.1123 7.73888 14.1493 7.7851C14.1863 7.83131 14.2549 7.84033 14.3026 7.80524Z" fill="#000088"/>
<path id="Vector_50" d="M14.0473 10.4855L13.1711 9.54343L12.6763 9.16929L13.0661 9.6443L14.0473 10.4855Z" fill="#000088"/>
</g>
</g>
<g id="b_12">
<g id="a_23">
<path id="Vector_51" d="M14.5633 8.2936C14.6189 8.27161 14.6451 8.21019 14.6217 8.15641C14.5984 8.10263 14.5344 8.07686 14.4788 8.09885C14.4232 8.12084 14.3971 8.18227 14.4204 8.23604C14.4438 8.28982 14.5077 8.31559 14.5633 8.2936Z" fill="#000088"/>
<path id="Vector_52" d="M13.5944 10.819L13.0016 9.69173L12.6244 9.20752L12.873 9.76301L13.5944 10.819Z" fill="#000088"/>
</g>
<g id="a_24">
<path id="Vector_53" d="M14.6833 8.83036C14.743 8.82299 14.7848 8.77025 14.7767 8.71255C14.7686 8.65486 14.7136 8.61406 14.6539 8.62143C14.5943 8.62879 14.5525 8.68154 14.5606 8.73923C14.5687 8.79693 14.6236 8.83773 14.6833 8.83036Z" fill="#000088"/>
<path id="Vector_54" d="M13.067 11.0286L12.7976 9.79279L12.5637 9.23141L12.6545 9.82949L13.067 11.0286Z" fill="#000088"/>
</g>
</g>
</g>
</g>
</g>
</g>
<defs>
<clipPath id="clip0_1_11930">
<rect width="25" height="18" fill="white"/>
</clipPath>
</defs>
</svg>
